<svg xmlns="http://www.w3.org/2000/svg" version="1.1" xmlns:xlink="http://www.w3.org/1999/xlink" xmlns:svgjs="http://svgjs.dev/svgjs" width="128" height="128" viewBox="0 0 128 128"><g transform="matrix(0.8046875,0,0,0.8046875,12.760752631578946,12.760752631578946)"><svg viewBox="0 0 95 95" data-background-color="#ffffff" preserveAspectRatio="xMidYMid meet" height="128" width="128" xmlns="http://www.w3.org/2000/svg" xmlns:xlink="http://www.w3.org/1999/xlink"><g id="tight-bounds" transform="matrix(1,0,0,1,-0.24049999999999727,-0.24049999999999727)"><svg viewBox="0 0 95.481 95.481" height="95.481" width="95.481"><g><svg viewBox="0 0 95.481 95.481" height="95.481" width="95.481"><g><svg viewBox="0 0 95.481 95.481" height="95.481" width="95.481"><g id="textblocktransform"><svg viewBox="0 0 95.481 95.481" height="95.481" width="95.481" id="textblock"><g><svg viewBox="0 0 95.481 95.481" height="95.481" width="95.481"><g><svg viewBox="0 0 95.481 95.481" height="95.481" width="95.481"><g><svg xmlns="http://www.w3.org/2000/svg" xmlns:xlink="http://www.w3.org/1999/xlink" version="1.1" x="0" y="0" viewBox="-31.699999999999996 -31.39999999999999 71.6 71.6" enable-background="new -45.5 -45.5 100 100" xml:space="preserve" height="95.481" width="95.481" class="icon-icon-0" data-fill-palette-color="accent" id="icon-0"><g fill="#001f3f" data-fill-palette-color="accent"><path fill="#001f3f" d="M4.1 40.2c-19.7 0-35.8-16.1-35.8-35.8s16.1-35.8 35.8-35.8S39.9-15.3 39.9 4.5 23.8 40.2 4.1 40.2zM4.1-29.3c-18.6 0-33.8 15.2-33.8 33.8 0 18.6 15.2 33.8 33.8 33.8S37.9 23.1 37.9 4.5C37.9-14.2 22.7-29.3 4.1-29.3z" data-fill-palette-color="accent"></path><path fill="#001f3f" d="M4.1 23c-0.2 0-0.3 0-0.5-0.1l-15.2-8.3c-0.3-0.2-0.5-0.5-0.5-0.9l-0.3-17.5c0-0.4 0.2-0.7 0.5-0.9L3-13.9c0.3-0.2 0.7-0.2 1 0l15.5 8.6c0.3 0.2 0.5 0.5 0.5 0.9l0.3 17.5c0 0.4-0.2 0.7-0.5 0.9L4.6 22.9C4.4 23 4.3 23 4.1 23zM-10.1 13.1l14.2 7.8 14.2-8.3L18-3.9 3.5-11.9l-13.9 8.6L-10.1 13.1z" data-fill-palette-color="accent"></path><path fill="#001f3f" d="M-25.7 23.3c-0.3 0-0.7-0.2-0.9-0.5-0.3-0.5-0.1-1.1 0.4-1.4l14.6-8.6c0.5-0.3 1.1-0.1 1.4 0.4 0.3 0.5 0.1 1.1-0.4 1.4l-14.6 8.6C-25.3 23.3-25.5 23.3-25.7 23.3z" data-fill-palette-color="accent"></path><path fill="#001f3f" d="M30.3-10.6c-0.4 0-0.7-0.2-0.9-0.5-0.3-0.5-0.1-1.1 0.4-1.4l3.3-1.8c0.5-0.3 1.1-0.1 1.4 0.4s0.1 1.1-0.4 1.4l-3.3 1.8C30.6-10.6 30.4-10.6 30.3-10.6z" data-fill-palette-color="accent"></path><path fill="#001f3f" d="M19-3.5c-0.3 0-0.7-0.2-0.9-0.5C17.8-4.4 18-5 18.4-5.3l6.2-3.9c0.5-0.3 1.1-0.1 1.4 0.3 0.3 0.5 0.1 1.1-0.3 1.4l-6.2 3.9C19.3-3.5 19.1-3.5 19-3.5z" data-fill-palette-color="accent"></path><path fill="#001f3f" d="M4.7 40.2c-0.5 0-1-0.4-1-1L3.1 22c0-0.6 0.4-1 1-1 0.5-0.1 1 0.4 1 1l0.6 17.2C5.7 39.8 5.3 40.2 4.7 40.2 4.7 40.2 4.7 40.2 4.7 40.2z" data-fill-palette-color="accent"></path><path fill="#001f3f" d="M3.5-12.1c-0.6 0-1-0.4-1-1v-10.4c0-0.6 0.4-1 1-1s1 0.4 1 1v10.4C4.5-12.5 4-12.1 3.5-12.1z" data-fill-palette-color="accent"></path><path fill="#001f3f" d="M33.8 22.1c-0.2 0-0.3 0-0.5-0.1l-9.8-5.4c-0.5-0.3-0.7-0.9-0.4-1.4 0.3-0.5 0.9-0.7 1.4-0.4l9.8 5.4c0.5 0.3 0.7 0.9 0.4 1.4C34.5 21.9 34.2 22.1 33.8 22.1z" data-fill-palette-color="accent"></path><path fill="#001f3f" d="M-11.4-2.9c-0.2 0-0.3 0-0.5-0.1l-14.9-8c-0.5-0.3-0.7-0.9-0.4-1.4 0.3-0.5 0.9-0.7 1.4-0.4l14.9 8c0.5 0.3 0.7 0.9 0.4 1.4C-10.7-3.1-11-2.9-11.4-2.9z" data-fill-palette-color="accent"></path></g></svg></g></svg></g></svg></g></svg></g></svg></g></svg></g><defs></defs></svg><rect width="95.481" height="95.481" fill="none" stroke="none" visibility="hidden"></rect></g></svg></g></svg>